<svg xmlns="http://www.w3.org/2000/svg" width="104.189" height="106.788" viewBox="0 0 104.189 106.788">
  <g id="Mon_logo" data-name="Mon logo" transform="translate(-1458.811 -516.212)">
    <g id="III" transform="translate(1459 462)">
      <path d="M 90.99990844726563 160.5001068115234 C 87.66118621826172 160.5001068115234 84.52229309082031 159.1998748779297 82.16143035888672 156.8388977050781 C 79.80052185058594 154.4778747558594 78.50030517578125 151.3386840820313 78.50030517578125 147.9996032714844 L 78.50030517578125 70.00019836425781 C 78.50030517578125 66.6611328125 79.80052185058594 63.52194976806641 82.16143035888672 61.16092300415039 C 84.52229309082031 58.79994964599609 87.66118621826172 57.49971008300781 90.99990844726563 57.49971008300781 C 94.33901214599609 57.49971008300781 97.47818756103516 58.79996109008789 99.83917236328125 61.16093444824219 C 102.2001495361328 63.52190780639648 103.5004043579102 66.66109466552734 103.5004043579102 70.00019836425781 L 103.5004043579102 147.9996032714844 C 103.5004043579102 151.3387145996094 102.2001495361328 154.4778900146484 99.83917236328125 156.8388824462891 C 97.47818756103516 159.1998596191406 94.33901214599609 160.5001068115234 90.99990844726563 160.5001068115234 Z M 52.00020217895508 160.5001068115234 C 48.66109466552734 160.5001068115234 45.52190780639648 159.1998596191406 43.16093444824219 156.8388824462891 C 40.79996109008789 154.4779052734375 39.49971008300781 151.3387145996094 39.49971008300781 147.9996032714844 L 39.49971008300781 70.00019836425781 C 39.49971008300781 66.66109466552734 40.79996109008789 63.52190780639648 43.16093444824219 61.16093444824219 C 45.52190780639648 58.79996109008789 48.66109466552734 57.49971008300781 52.00020217895508 57.49971008300781 C 55.33892059326172 57.49971008300781 58.47781372070313 58.79994964599609 60.83868408203125 61.16092300415039 C 63.19958877563477 63.52194976806641 64.49980163574219 66.6611328125 64.49980163574219 70.00019836425781 L 64.49980163574219 147.9996032714844 C 64.49980163574219 151.3386840820313 63.19958877563477 154.4778747558594 60.83866882324219 156.8388977050781 C 58.47781372070313 159.1998748779297 55.33892059326172 160.5001068115234 52.00020217895508 160.5001068115234 Z M 12.99960231781006 160.5001068115234 C 9.660881996154785 160.5001068115234 6.521988868713379 159.1998748779297 4.161135673522949 156.8388977050781 C 1.800215482711792 154.4778747558594 0.5000022053718567 151.3386840820313 0.5000022053718567 147.9996032714844 L 0.5000022053718567 70.00019836425781 C 0.5000022053718567 66.6611328125 1.800215482711792 63.52194976806641 4.16112232208252 61.16092300415039 C 6.521988868713379 58.79994964599609 9.660881996154785 57.49971008300781 12.99960231781006 57.49971008300781 C 16.33870887756348 57.49971008300781 19.47789573669434 58.79996109008789 21.83886909484863 61.16093444824219 C 24.19984245300293 63.52190780639648 25.50009536743164 66.66109466552734 25.50009536743164 70.00019836425781 L 25.50009536743164 147.9996032714844 C 25.50009536743164 151.3387145996094 24.19984245300293 154.4779052734375 21.83886909484863 156.8388824462891 C 19.47789573669434 159.1998596191406 16.33870887756348 160.5001068115234 12.99960231781006 160.5001068115234 Z" stroke="none"/>
      <path d="M 90.99990081787109 160.0001068115234 C 94.20545959472656 160.0001068115234 97.21907043457031 158.7518615722656 99.48561859130859 156.4853210449219 C 101.7521591186523 154.2187805175781 103.0004043579102 151.2051696777344 103.0004043579102 147.9996032714844 L 103.0004043579102 70.00019073486328 C 103.0004043579102 66.79463958740234 101.7521591186523 63.78102111816406 99.48561859130859 61.51449584960938 C 97.21907043457031 59.24795150756836 94.20545959472656 57.99971008300781 90.99990081787109 57.99971008300781 C 87.79474639892578 57.99971008300781 84.78141784667969 59.2479362487793 82.51498413085938 61.51446533203125 C 80.24850463867188 63.78105163574219 79.00030517578125 66.794677734375 79.00030517578125 70.00019073486328 L 79.00030517578125 147.9996032714844 C 79.00030517578125 151.2051239013672 80.24850463867188 154.21875 82.51498413085938 156.4853363037109 C 84.78141784667969 158.7518768310547 87.79474639892578 160.0001068115234 90.99990081787109 160.0001068115234 M 52.00020217895508 160.0001068115234 C 55.20536041259766 160.0001068115234 58.21868896484375 158.7518768310547 60.48511505126953 156.4853363037109 C 62.75160217285156 154.21875 63.99980163574219 151.2051239013672 63.99980163574219 147.9996032714844 L 63.99980163574219 70.00019073486328 C 63.99980163574219 66.794677734375 62.75160217285156 63.78105163574219 60.48511505126953 61.51446533203125 C 58.21868896484375 59.2479362487793 55.20536041259766 57.99971008300781 52.00020217895508 57.99971008300781 C 48.79464340209961 57.99971008300781 45.78103256225586 59.24795150756836 43.51448822021484 61.51449584960938 C 41.24794387817383 63.78102111816406 39.99970245361328 66.79463958740234 39.99970245361328 70.00019073486328 L 39.99970245361328 147.9996032714844 C 39.99970245361328 151.2051696777344 41.24794387817383 154.2187805175781 43.51448822021484 156.4853210449219 C 45.78103256225586 158.7518615722656 48.79464340209961 160.0001068115234 52.00020217895508 160.0001068115234 M 12.99960231781006 160.0001068115234 C 16.20516014099121 160.0001068115234 19.21877288818359 158.7518615722656 21.48531723022461 156.4853210449219 C 23.75185966491699 154.2187805175781 25.00010299682617 151.2051696777344 25.00010299682617 147.9996032714844 L 25.00010299682617 70.00019073486328 C 25.00010299682617 66.79463958740234 23.75185966491699 63.78102111816406 21.48531723022461 61.51449584960938 C 19.21877288818359 59.24795150756836 16.20516014099121 57.99971008300781 12.99960231781006 57.99971008300781 C 9.794445037841797 57.99971008300781 6.781116485595703 59.2479362487793 4.514688014984131 61.51446533203125 C 2.248202085494995 63.78105163574219 1.000002145767212 66.794677734375 1.000002145767212 70.00019073486328 L 1.000002145767212 147.9996032714844 C 1.000002145767212 151.2051239013672 2.248202085494995 154.21875 4.514688014984131 156.4853363037109 C 6.781116485595703 158.7518768310547 9.794445037841797 160.0001068115234 12.99960231781006 160.0001068115234 M 90.99990081787109 161.0001068115234 C 83.82060241699219 161.0001068115234 78.00030517578125 155.1798095703125 78.00030517578125 147.9996032714844 L 78.00030517578125 70.00019073486328 C 78.00030517578125 62.82000732421875 83.82060241699219 56.99971008300781 90.99990081787109 56.99971008300781 C 98.18009948730469 56.99971008300781 104.0004043579102 62.82000732421875 104.0004043579102 70.00019073486328 L 104.0004043579102 147.9996032714844 C 104.0004043579102 155.1798095703125 98.18009948730469 161.0001068115234 90.99990081787109 161.0001068115234 Z M 52.00020217895508 161.0001068115234 C 44.82000350952148 161.0001068115234 38.99970245361328 155.1798095703125 38.99970245361328 147.9996032714844 L 38.99970245361328 70.00019073486328 C 38.99970245361328 62.82000732421875 44.82000350952148 56.99971008300781 52.00020217895508 56.99971008300781 C 59.17950057983398 56.99971008300781 64.99980163574219 62.82000732421875 64.99980163574219 70.00019073486328 L 64.99980163574219 147.9996032714844 C 64.99980163574219 155.1798095703125 59.17950057983398 161.0001068115234 52.00020217895508 161.0001068115234 Z M 12.99960231781006 161.0001068115234 C 5.82030200958252 161.0001068115234 2.178955128329108e-06 155.1798095703125 2.178955128329108e-06 147.9996032714844 L 2.178955128329108e-06 70.00019073486328 C 2.178955128329108e-06 62.82000732421875 5.82030200958252 56.99971008300781 12.99960231781006 56.99971008300781 C 20.17980194091797 56.99971008300781 26.00010299682617 62.82000732421875 26.00010299682617 70.00019073486328 L 26.00010299682617 147.9996032714844 C 26.00010299682617 155.1798095703125 20.17980194091797 161.0001068115234 12.99960231781006 161.0001068115234 Z" stroke="none" fill="#fff"/>
    </g>
    <g id="X" transform="translate(1453.327 453.821)">
      <path d="M 96.50418090820313 167.9914855957031 C 94.82656860351563 167.9915771484375 93.19132232666016 167.6639709472656 91.64386749267578 167.0177917480469 C 90.04187774658203 166.3488159179688 88.61189270019531 165.3686828613281 87.39360809326172 164.1046295166016 L 58.26500701904297 133.88232421875 L 57.91122436523438 133.5152740478516 L 57.55109405517578 133.8760986328125 L 27.31570816040039 164.1703796386719 C 24.93586540222168 166.5548400878906 21.77703666687012 167.8681030273438 18.42110824584961 167.8682250976563 C 15.09360790252686 167.8683624267578 11.96906566619873 166.5736541748047 9.62303638458252 164.2226257324219 C 7.266965389251709 161.8619537353516 5.97466516494751 158.7178039550781 5.984150886535645 155.3693237304688 C 5.993636608123779 152.019775390625 7.304479598999023 148.866943359375 9.67520809173584 146.4916076660156 L 40.23027801513672 115.8770141601563 L 40.57669448852539 115.529914855957 L 40.23639297485352 115.1768188476563 L 10.32932281494141 84.14681243896484 C 7.988408088684082 81.71795654296875 6.721722602844238 78.53081512451172 6.762622356414795 75.17251586914063 C 6.803493976593018 71.81623077392578 8.145693778991699 68.69100189208984 10.54197978973389 66.37254333496094 C 12.86210823059082 64.12775421142578 15.92437934875488 62.89150238037109 19.16472244262695 62.89150238037109 C 20.84242248535156 62.89150238037109 22.47760772705078 63.2191162109375 24.02486610412598 63.86525726318359 C 25.62679481506348 64.53421783447266 27.05683708190918 65.51444244384766 28.27529335021973 66.77867126464844 L 57.86843490600586 97.48295593261719 L 58.22222137451172 97.85001373291016 L 58.58235168457031 97.48918914794922 L 87.74840545654297 68.26631164550781 C 90.12836456298828 65.88172912597656 93.28719329833984 64.56847381591797 96.64298248291016 64.56847381591797 C 99.97061920166016 64.56847381591797 103.0951766967773 65.86317443847656 105.4410781860352 68.21407318115234 C 107.7971343994141 70.57474517822266 109.0894546508789 73.71890258789063 109.079963684082 77.0673828125 C 109.0704803466797 80.41693115234375 107.759635925293 83.56975555419922 105.3889083862305 85.94508361816406 L 75.90315246582031 115.4882736206055 L 75.55673980712891 115.8353729248047 L 75.89703369140625 116.1884689331055 L 105.3395919799805 146.7364959716797 C 107.680549621582 149.1654052734375 108.9471969604492 152.3524017333984 108.9061813354492 155.71044921875 C 108.8651962280273 159.0665588378906 107.5227203369141 162.1919097900391 105.1260375976563 164.5107574462891 C 102.8066940307617 166.7551727294922 99.74473571777344 167.9913024902344 96.50418090820313 167.9914855957031 Z" stroke="none"/>
      <path d="M 96.504150390625 167.4914855957031 C 99.61425018310547 167.4913177490234 102.552734375 166.3051452636719 104.7783660888672 164.1514129638672 C 107.0784759521484 161.9259948730469 108.3668823242188 158.9261016845703 108.4062194824219 155.7043304443359 C 108.4456100463867 152.4786682128906 107.2286834716797 149.4170532226563 104.9795913696289 147.0834655761719 L 75.53703308105469 116.5354461669922 L 74.85640716552734 115.8292541503906 L 75.54924774169922 115.1350708007813 L 105.0350189208984 85.59188842773438 C 107.311897277832 83.31056976318359 108.5708541870117 80.28268432617188 108.579963684082 77.06597137451172 C 108.5890655517578 73.85138702392578 107.3486480712891 70.83317565917969 105.0871505737305 68.5672607421875 C 102.8357238769531 66.31102752685547 99.83686828613281 65.06847381591797 96.64298248291016 65.06847381591797 C 93.42092132568359 65.06847381591797 90.38777923583984 66.32958984375 88.10231018066406 68.61951446533203 L 58.93625259399414 97.84238433837891 L 58.21599578857422 98.56404113769531 L 57.50843811035156 97.82992553710938 L 27.91527938842773 67.12564086914063 C 26.74449348449707 65.91087341308594 25.37073707580566 64.96914672851563 23.83219337463379 64.32664489746094 C 22.34629440307617 63.70613098144531 20.77593612670898 63.39150238037109 19.16472244262695 63.39150238037109 C 16.05483627319336 63.39150238037109 13.11602210998535 64.57780456542969 10.88965129852295 66.73188781738281 C 8.589937210083008 68.95690155029297 7.301822662353516 71.95667266845703 7.262579441070557 75.17860412597656 C 7.223308086395264 78.404541015625 8.440279960632324 81.46628570556641 10.68932247161865 83.79984283447266 L 40.59639358520508 114.8298416137695 L 41.27702331542969 115.5360260009766 L 40.58417892456055 116.2302169799805 L 10.02910804748535 146.8448181152344 C 7.752222537994385 149.1261291503906 6.493265151977539 152.1540222167969 6.484150886535645 155.3707427978516 C 6.47503662109375 158.5853118896484 7.715465545654297 161.6035308837891 9.976964950561523 163.8694458007813 C 12.22850799560547 166.1257934570313 15.22735118865967 167.3683624267578 18.42107963562012 167.3682250976563 C 21.64328002929688 167.3681030273438 24.67643737792969 166.1069793701172 26.9618091583252 163.8171844482422 L 57.19719314575195 133.5229034423828 L 57.91744995117188 132.8012390136719 L 58.62500762939453 133.5353546142578 L 87.75362396240234 163.7576599121094 C 88.92424011230469 164.9722595214844 90.29793548583984 165.9138793945313 91.83654022216797 166.556396484375 C 93.32262420654297 167.1769561767578 94.89303588867188 167.4915771484375 96.504150390625 167.4914855957031 M 96.50421142578125 168.4914855957031 C 93.06749725341797 168.4916687011719 89.62310791015625 167.1384124755859 87.03359222412109 164.4515991210938 L 57.90499496459961 134.2293090820313 L 27.66960906982422 164.5236053466797 C 25.11236953735352 167.0858001708984 21.7631664276123 168.3681030273438 18.4211254119873 168.3682403564453 C 15.10347175598145 168.3683624267578 11.79288196563721 167.1049652099609 9.269107818603516 164.5758056640625 C 4.202094078063965 159.4989013671875 4.225508213043213 151.2441101074219 9.321308135986328 146.1383972167969 L 39.87638092041016 115.5238037109375 L 9.969307899475098 84.49379730224609 C 4.939208030700684 79.27470397949219 5.040008068084717 71.00009918212891 10.19430828094482 66.01319885253906 C 12.69513416290283 63.59358215332031 15.92680168151855 62.39149475097656 19.16471672058105 62.39149475097656 C 22.60143661499023 62.39149475097656 26.04534721374512 63.74442672729492 28.63530731201172 66.43170166015625 L 58.22845077514648 97.13597106933594 L 87.39450836181641 67.91310119628906 C 89.95173645019531 65.35089874267578 93.30093383789063 64.06847381591797 96.64298248291016 64.06847381591797 C 99.96063232421875 64.06847381591797 103.2712326049805 65.33174896240234 105.7950057983398 67.86090087890625 C 110.8620071411133 72.93779754638672 110.8386077880859 81.19260406494141 105.742805480957 86.29830169677734 L 76.25704956054688 115.8414840698242 L 105.6996078491211 146.3895111083984 C 110.7297058105469 151.6085968017578 110.62890625 159.8823089599609 105.4737091064453 164.8701019287109 C 102.9733047485352 167.2897186279297 99.74211883544922 168.4913024902344 96.50421142578125 168.4914855957031 Z" stroke="none" fill="#fff"/>
    </g>
    <g id="G" transform="translate(1459 460.999)" fill="rgba(255,251,125,0.48)">
      <path d="M 52.00020599365234 160.5001068115234 C 45.0467529296875 160.5001068115234 38.30224609375 159.1383819580078 31.95401954650879 156.4527282714844 C 28.90179252624512 155.1615600585938 25.95871162414551 153.5640563964844 23.2065258026123 151.70458984375 C 20.47885894775391 149.8627014160156 17.91440582275391 147.7469024658203 15.58432579040527 145.4159393310547 C 13.25325870513916 143.0857543945313 11.13715171813965 140.5213012695313 9.294631958007813 137.7936248779297 C 7.435978889465332 135.0421752929688 5.83847188949585 132.0990753173828 4.546472072601318 129.0460357666016 C 1.861445426940918 122.6963119506836 0.5000053644180298 115.9517593383789 0.5000053644180298 108.9998931884766 C 0.5000053644180298 102.0489349365234 1.861458659172058 95.30438995361328 4.546538829803467 88.95361328125 C 5.83847188949585 85.90162658691406 7.436005592346191 82.95848083496094 9.294672012329102 80.20612335205078 C 11.13709831237793 77.47948455810547 13.25324535369873 74.91497802734375 15.58425903320313 72.58394622802734 C 17.91167259216309 70.25565338134766 20.47615242004395 68.13983917236328 23.20651245117188 66.29521179199219 C 25.96144485473633 64.43421173095703 28.90451240539551 62.83670806884766 31.95395278930664 61.5471076965332 C 38.30312347412109 58.86144256591797 45.04764556884766 57.49971008300781 52.00020599365234 57.49971008300781 C 58.95187377929688 57.49971008300781 65.69640350341797 58.86145401000977 72.04644775390625 61.5471076965332 C 75.10031127929688 62.83910751342773 78.04338836669922 64.43659973144531 80.79386138916016 66.29518890380859 C 83.52336883544922 68.13983154296875 86.08787536621094 70.25568389892578 88.4161376953125 72.58396148681641 C 90.74801635742188 74.91670989990234 92.86388397216797 77.48123168945313 94.70489501953125 80.20619964599609 C 96.56352233886719 82.95761871337891 98.16103363037109 85.90073394775391 99.45304870605469 88.95377349853516 C 100.8481979370117 92.25272369384766 101.896125793457 95.69490051269531 102.5712738037109 99.19480133056641 L 88.84534454345703 99.19480133056641 C 84.21755218505859 82.73763275146484 69.12187194824219 71.27860260009766 52.00020599365234 71.27860260009766 C 30.89888572692871 71.27860260009766 13.73169898986816 88.44578552246094 13.73169898986816 109.5471115112305 C 13.73169898986816 130.6484222412109 30.89888572692871 147.8155975341797 52.00020599365234 147.8155975341797 C 67.90523529052734 147.8155975341797 82.32457733154297 137.7862396240234 87.88089752197266 122.8588256835938 L 88.13193511962891 122.1844024658203 L 87.41231536865234 122.1844024658203 L 78.82109832763672 122.1844024658203 C 75.17285919189453 122.1844024658203 72.20480346679688 119.2167510986328 72.20480346679688 115.5690002441406 C 72.20480346679688 111.9207611083984 75.17285919189453 108.9527053833008 78.82109832763672 108.9527053833008 L 89.75250244140625 108.9527053833008 L 103.49951171875 108.9527053833008 C 103.49951171875 108.9685134887695 103.49951171875 108.9842300415039 103.49951171875 108.9998931884766 C 103.49951171875 115.953857421875 102.138069152832 122.698371887207 99.45301818847656 129.0461273193359 C 98.16342163085938 132.0955657958984 96.56591033935547 135.0386352539063 94.70488739013672 137.7936248779297 C 92.86386871337891 140.5194854736328 90.748046875 143.0839691162109 88.4161376953125 145.4158477783203 C 86.08513641357422 147.7468719482422 83.52064514160156 149.8627014160156 80.79392242431641 151.7045593261719 C 78.04256439208984 153.5640869140625 75.09951019287109 155.1615600585938 72.04645538330078 156.4527130126953 C 65.69728851318359 159.1383819580078 58.95276641845703 160.5001068115234 52.00020599365234 160.5001068115234 Z" stroke="none"/>
      <path d="M 52.00020980834961 160.0001068115234 C 58.88547897338867 160.0001068115234 65.56446838378906 158.6516571044922 71.85170745849609 155.9921875 C 74.87497711181641 154.7136535644531 77.78933715820313 153.1317291259766 80.51405334472656 151.2902374267578 C 83.21434020996094 149.4662322998047 85.75403594970703 147.370849609375 88.06259155273438 145.0623016357422 C 90.37197875976563 142.7529144287109 92.46735382080078 140.2132263183594 94.29055023193359 137.5137329101563 C 96.13350677490234 134.7855224609375 97.71546936035156 131.87109375 98.99250793457031 128.8513336181641 C 101.5931091308594 122.7033004760742 102.9397964477539 116.1795043945313 102.9975662231445 109.4527053833008 L 89.75251007080078 109.4527053833008 L 78.82109832763672 109.4527053833008 C 75.44856262207031 109.4527053833008 72.70481109619141 112.1964645385742 72.70481109619141 115.5689926147461 C 72.70481109619141 118.941047668457 75.44856262207031 121.6844100952148 78.82109832763672 121.6844100952148 L 87.41230773925781 121.6844100952148 L 88.85157012939453 121.6844100952148 L 88.34949493408203 123.0332489013672 C 82.72066497802734 138.1553955078125 68.11302185058594 148.3155975341797 52.00020980834961 148.3155975341797 C 30.6231803894043 148.3155975341797 13.23170948028564 130.9241180419922 13.23170948028564 109.5471115112305 C 13.23170948028564 88.17008209228516 30.6231803894043 70.77861022949219 52.00020980834961 70.77861022949219 C 69.21863555908203 70.77861022949219 84.41465759277344 82.21856689453125 89.22219848632813 98.69480895996094 L 101.9618759155273 98.69480895996094 C 101.2918167114258 95.43418884277344 100.2949142456055 92.2281494140625 98.99258422851563 89.14863586425781 C 97.713134765625 86.12530517578125 96.13114929199219 83.21079254150391 94.29059600830078 80.48610687255859 C 92.4674072265625 77.78753662109375 90.37196350097656 75.24776458740234 88.06259155273438 72.93750762939453 C 85.75676727294922 70.63169097900391 83.21701049804688 68.53626251220703 80.51389312744141 66.70946502685547 C 77.79022216796875 64.86898040771484 74.87579345703125 63.28702163696289 71.85167694091797 62.00762176513672 C 65.56360626220703 59.34816741943359 58.88460922241211 57.99971008300781 52.00020980834961 57.99971008300781 C 45.11493682861328 57.99971008300781 38.43595123291016 59.34816741943359 32.1486930847168 62.00763702392578 C 29.12896537780762 63.28466415405273 26.21453857421875 64.86662292480469 23.48642349243164 66.70952606201172 C 20.78245162963867 68.53632354736328 18.24276542663574 70.63168334960938 15.93780899047852 72.93750762939453 C 13.62932300567627 75.24600982666016 11.53360939025879 77.78575134277344 9.709023475646973 80.48593902587891 C 7.868380546569824 83.21163940429688 6.286352157592773 86.126220703125 5.007051944732666 89.14832305908203 C 2.348166227340698 95.43714904785156 0.9999948740005493 102.1161804199219 0.9999948740005493 108.9998931884766 C 0.9999948740005493 115.8844909667969 2.348152160644531 122.5635223388672 5.006923675537109 128.8511810302734 C 6.28636646270752 131.87451171875 7.868351936340332 134.7890167236328 9.708951950073242 137.5137481689453 C 11.53365230560303 140.2150115966797 13.62929534912109 142.7546691894531 15.93795204162598 145.0624389648438 C 18.24551010131836 147.3708801269531 20.78510856628418 149.4661865234375 23.48643684387207 151.290283203125 C 26.21196556091309 153.1317291259766 29.12639427185059 154.7136993408203 32.14882278442383 155.9922332763672 C 38.43508148193359 158.6516723632813 45.11405181884766 160.0001068115234 52.00020980834961 160.0001068115234 M 52.00020980834961 161.0001068115234 C 44.97929382324219 161.0001068115234 38.16901016235352 159.6249084472656 31.75919532775879 156.9132080078125 C 28.67849540710449 155.6100158691406 25.70670890808105 153.9972076416016 22.92660903930664 152.118896484375 C 20.17170906066895 150.2586059570313 17.5824089050293 148.1220092773438 15.23070907592773 145.7694091796875 C 12.87720966339111 143.4168090820313 10.74060916900635 140.8274993896484 8.880294799804688 138.0735015869141 C 7.002894878387451 135.2942962646484 5.390094757080078 132.322509765625 4.085994720458984 129.2409057617188 C 1.375194907188416 122.830192565918 -5.098179371998413e-06 116.019905090332 -5.098179371998413e-06 108.9998931884766 C -5.098179371998413e-06 101.9808120727539 1.375194907188416 95.17050933837891 4.085994720458984 88.7589111328125 C 5.390094757080078 85.67819213867188 7.002894878387451 82.70640563964844 8.880294799804688 79.92629241943359 C 10.74060916900635 77.17321014404297 12.87720966339111 74.58390808105469 15.23070907592773 72.23040771484375 C 17.5824089050293 69.8778076171875 20.17170906066895 67.74211120605469 22.92660903930664 65.88090515136719 C 25.70579528808594 64.00350952148438 28.6775951385498 62.38980865478516 31.75919532775879 61.08660888671875 C 38.1699104309082 58.37490844726563 44.98019409179688 56.99971008300781 52.00020980834961 56.99971008300781 C 59.01930999755859 56.99971008300781 65.82961273193359 58.37490844726563 72.2412109375 61.08660888671875 C 75.32369232177734 62.39070892333984 78.29550933837891 64.00350952148438 81.07379150390625 65.88090515136719 C 83.82781219482422 67.74211120605469 86.41709136962891 69.8778076171875 88.76969146728516 72.23040771484375 C 91.12319183349609 74.58480834960938 93.25981140136719 77.17411041259766 95.11920928955078 79.92629241943359 C 96.99661254882813 82.70550537109375 98.60940551757813 85.67729187011719 99.91350555419922 88.7589111328125 C 101.4020919799805 92.27880859375 102.4983062744141 95.95799255371094 103.1733093261719 99.69480895996094 L 88.46459197998047 99.69480895996094 C 84.01860809326172 83.25811004638672 69.02371215820313 71.77861022949219 52.00020980834961 71.77861022949219 C 31.1741943359375 71.77861022949219 14.23170948028564 88.72199249267578 14.23170948028564 109.5471115112305 C 14.23170948028564 130.3731079101563 31.1741943359375 147.3155975341797 52.00020980834961 147.3155975341797 C 68.20752716064453 147.3155975341797 82.06422424316406 137.0523529052734 87.41230773925781 122.6844100952148 L 78.82109832763672 122.6844100952148 C 74.89079284667969 122.6844100952148 71.70481109619141 119.498405456543 71.70481109619141 115.5689926147461 C 71.70481109619141 111.6387100219727 74.89079284667969 108.4527053833008 78.82109832763672 108.4527053833008 L 89.75251007080078 108.4527053833008 L 103.9968109130859 108.4527053833008 C 103.99951171875 108.6668930053711 103.99951171875 108.8405914306641 103.99951171875 108.9998931884766 C 103.99951171875 116.019905090332 102.6252059936523 122.830192565918 99.91350555419922 129.2409057617188 C 98.61030578613281 132.322509765625 96.99661254882813 135.2942962646484 95.11920928955078 138.0735015869141 C 93.25981140136719 140.8265991210938 91.12319183349609 143.4159088134766 88.76969146728516 145.7694091796875 C 86.41709136962891 148.1220092773438 83.82781219482422 150.2586059570313 81.07379150390625 152.118896484375 C 78.29460906982422 153.9972076416016 75.32279205322266 155.6100158691406 72.2412109375 156.9132080078125 C 65.83051300048828 159.6249084472656 59.02111053466797 161.0001068115234 52.00020980834961 161.0001068115234 Z" stroke="none" fill="#707070"/>
    </g>
  </g>
</svg>
